<?xml version="1.0" standalone="no"?>
<svg xmlns="http://www.w3.org/2000/svg" viewBox="0 0 90.985 36" width="90.985" height="36"><g fill="#61d1b6" color="#61d1b6" transform="translate(0 3.9999999999999982) scale(0.2800001)"><svg width="100.0" height="100.0" x="0.0" y="0.0" viewBox="0 0 100 100"><path d="M24.345,64.261C24.345,78.454,35.891,90,50.083,90s25.739-11.546,25.739-25.739S64.275,38.522,50.083,38.522  S24.345,50.069,24.345,64.261z M73.822,64.261C73.822,77.351,63.173,88,50.083,88c-13.089,0-23.738-10.649-23.738-23.739  s10.649-23.739,23.738-23.739C63.173,40.522,73.822,51.171,73.822,64.261z"></path><path d="M19.885,29.763c-5.382,0-9.76,4.378-9.76,9.76s4.378,9.76,9.76,9.76s9.76-4.378,9.76-9.76S25.267,29.763,19.885,29.763z   M19.885,47.282c-4.278,0-7.76-3.481-7.76-7.76s3.481-7.76,7.76-7.76s7.76,3.481,7.76,7.76S24.163,47.282,19.885,47.282z"></path><path d="M80.638,49.282c5.122,0,9.289-4.167,9.289-9.289s-4.167-9.289-9.289-9.289c-5.121,0-9.288,4.167-9.288,9.289  S75.517,49.282,80.638,49.282z M80.638,32.705c4.02,0,7.289,3.27,7.289,7.289s-3.27,7.289-7.289,7.289  c-4.019,0-7.288-3.27-7.288-7.289S76.619,32.705,80.638,32.705z"></path><path d="M43.776,12.444c-2.208-1.947-4.857-2.774-7.474-2.326c-5.304,0.91-8.719,6.898-7.612,13.348c0,0,0,0,0,0  c1.012,5.893,5.452,10.164,10.256,10.164c0.454,0,0.912-0.038,1.37-0.117c5.304-0.91,8.719-6.898,7.612-13.348  C47.399,17.08,45.925,14.337,43.776,12.444z M39.979,31.542c-4.21,0.72-8.396-3.051-9.317-8.415v0  c-0.92-5.364,1.763-10.315,5.979-11.039c1.996-0.339,4.065,0.315,5.813,1.854c1.807,1.593,3.052,3.923,3.504,6.56  C46.878,25.867,44.195,30.819,39.979,31.542z"></path><path d="M67.324,10.464c-2.532-0.772-5.27-0.288-7.707,1.365c-2.37,1.608-4.179,4.143-5.092,7.137  c-0.915,2.994-0.83,6.107,0.238,8.765c1.098,2.732,3.098,4.663,5.631,5.437c0.787,0.24,1.594,0.359,2.405,0.359  c1.8,0,3.622-0.584,5.302-1.724c2.37-1.608,4.179-4.143,5.092-7.137c0.915-2.994,0.83-6.107-0.238-8.765  C71.856,13.168,69.857,11.238,67.324,10.464z M71.281,24.082c-0.781,2.559-2.31,4.713-4.303,6.066c-1.927,1.307-4.058,1.701-6,1.107  c-1.943-0.593-3.491-2.109-4.359-4.27c-0.898-2.235-0.963-4.875-0.182-7.435s2.31-4.713,4.303-6.066  c1.341-0.91,2.78-1.376,4.187-1.376c0.614,0,1.223,0.089,1.813,0.27c1.943,0.593,3.491,2.109,4.359,4.27  C71.998,18.882,72.062,21.522,71.281,24.082z"></path></svg></g><path fill="#61d1b6" fill-rule="nonzero" d="M1.16 2.43L1.16 2.43Q1.01 2.45 0.90 2.46Q0.80 2.47 0.73 2.47L0.73 2.47Q0.33 2.45 0.16 2.24Q0 2.04 0 1.56L0 1.56Q0 0.61 0.91 0.36L0.91 0.36Q1.72 0.18 2.65 0.09Q3.57 0 4.71 0L4.71 0Q6.23 0 7.74 0.29Q9.25 0.59 10.61 1.10Q11.98 1.61 13.15 2.30Q14.32 3 15.18 3.81Q16.04 4.63 16.53 5.53Q17.02 6.42 17.02 7.32L17.02 7.32Q17.02 8.24 16.40 9.06Q15.79 9.89 14.74 10.52Q13.70 11.16 12.33 11.53Q10.96 11.91 9.46 11.91L9.46 11.91Q8.26 11.91 6.96 11.68Q5.66 11.46 4.09 10.97L4.09 10.97Q3.36 10.77 3.36 10.08L3.36 10.08Q3.36 9.93 3.43 9.80Q3.50 9.67 3.58 9.55Q3.66 9.43 3.73 9.32Q3.80 9.21 3.80 9.09L3.80 9.09Q3.80 8.43 3.73 7.66Q3.67 6.90 3.56 6.14Q3.45 5.38 3.30 4.68Q3.15 3.98 3 3.45Q2.85 2.91 2.69 2.58Q2.53 2.26 2.40 2.26L2.40 2.26Q2.20 2.26 1.92 2.31Q1.63 2.36 1.16 2.43ZM5.67 2.24L5.67 2.24Q5.33 2.24 5.33 2.47L5.33 2.47Q5.33 2.53 5.37 2.67Q5.40 2.81 5.47 3.12L5.47 3.12Q5.58 3.61 5.67 4.17Q5.77 4.73 5.86 5.43Q5.95 6.13 6.04 6.99Q6.13 7.85 6.22 8.93L6.22 8.93Q6.23 9.11 6.54 9.26Q6.84 9.42 7.35 9.54Q7.85 9.67 8.50 9.74Q9.15 9.82 9.84 9.82L9.84 9.82Q10.76 9.82 11.60 9.60Q12.43 9.39 13.07 9.02Q13.71 8.66 14.09 8.18Q14.47 7.70 14.47 7.18L14.47 7.18Q14.47 6.33 13.80 5.52Q13.13 4.71 11.94 4.05Q10.76 3.39 9.15 2.91Q7.55 2.44 5.67 2.24ZM18.09 7.49L18.09 7.49Q18.09 7.29 18.14 7.04Q18.19 6.80 18.19 6.50L18.19 6.50Q18.19 6.30 18.02 6.20Q17.85 6.09 17.64 5.96Q17.43 5.84 17.26 5.64Q17.09 5.44 17.09 5.06L17.09 5.06Q17.09 4.79 17.23 4.52Q17.38 4.25 17.66 4.03L17.66 4.03Q18.35 3.52 19.10 3.11Q19.84 2.70 20.58 2.41Q21.33 2.13 22.05 1.98Q22.78 1.83 23.45 1.83L23.45 1.83Q24.57 1.83 25.56 2.24Q26.55 2.66 27.29 3.38Q28.02 4.10 28.45 5.07Q28.88 6.04 28.88 7.14L28.88 7.14Q28.88 8.21 28.42 9.18Q27.97 10.15 27.21 10.88Q26.45 11.60 25.42 12.03Q24.40 12.46 23.26 12.46L23.26 12.46Q22.15 12.46 21.20 12.08Q20.25 11.71 19.56 11.04Q18.87 10.38 18.48 9.47Q18.09 8.57 18.09 7.49ZM23.52 10.35L23.52 10.35Q24.01 10.35 24.54 10.15Q25.07 9.95 25.51 9.57Q25.95 9.19 26.23 8.64Q26.52 8.09 26.52 7.39L26.52 7.39Q26.52 6.69 26.26 6.08Q26.00 5.47 25.55 5.02Q25.10 4.57 24.49 4.31Q23.87 4.05 23.16 4.05L23.16 4.05Q21.86 4.05 21.16 4.73Q20.47 5.40 20.47 6.80L20.47 6.80Q20.47 7.56 20.70 8.21Q20.93 8.86 21.34 9.33Q21.75 9.81 22.31 10.08Q22.86 10.35 23.52 10.35ZM36.60 2.24L36.60 2.24Q37.16 2.24 37.66 2.33Q38.17 2.41 38.58 2.51Q38.99 2.61 39.28 2.70Q39.57 2.79 39.70 2.79L39.70 2.79Q39.81 2.79 39.90 2.68Q40.00 2.57 40.14 2.44Q40.28 2.31 40.51 2.20Q40.75 2.09 41.13 2.09L41.13 2.09Q41.58 2.09 41.84 2.31Q42.09 2.54 42.09 2.88L42.09 2.88Q42.09 7.17 41.80 10.17Q41.51 13.16 40.85 15.04Q40.20 16.91 39.15 17.75Q38.11 18.60 36.62 18.60L36.62 18.60Q35.94 18.60 35.21 18.29Q34.48 17.99 33.87 17.51Q33.26 17.04 32.87 16.46Q32.47 15.89 32.47 15.36L32.47 15.36Q32.47 15.19 32.66 14.95Q32.85 14.72 33.12 14.50Q33.39 14.27 33.68 14.12Q33.97 13.97 34.18 13.97L34.18 13.97Q34.41 13.97 34.56 14.15Q34.71 14.33 34.85 14.60Q34.98 14.87 35.12 15.19Q35.26 15.52 35.47 15.79Q35.68 16.05 35.99 16.24Q36.29 16.42 36.75 16.42L36.75 16.42Q39.30 16.42 39.75 8.61L39.75 8.61Q39.75 8.26 39.55 8.26L39.55 8.26Q39.39 8.26 39.29 8.43L39.29 8.43Q38.19 9.91 36.72 10.66Q35.25 11.40 33.46 11.40L33.46 11.40Q32.63 11.40 31.92 11.15Q31.22 10.90 30.71 10.45Q30.20 10.00 29.92 9.37Q29.64 8.74 29.64 7.99L29.64 7.99Q29.64 7.25 29.90 6.53Q30.16 5.81 30.64 5.17Q31.11 4.54 31.77 4.00Q32.43 3.46 33.20 3.06Q33.97 2.67 34.83 2.46Q35.70 2.24 36.60 2.24ZM33.82 9.25L33.82 9.25Q35.43 9.25 36.76 8.23Q38.10 7.22 39.05 5.29L39.05 5.29Q39.07 5.21 39.08 5.17Q39.09 5.13 39.09 5.09L39.09 5.09Q39.09 4.97 38.85 4.84Q38.60 4.71 38.20 4.62Q37.80 4.52 37.29 4.46Q36.79 4.39 36.27 4.39L36.27 4.39Q35.44 4.39 34.66 4.68Q33.89 4.96 33.29 5.43Q32.70 5.89 32.33 6.49Q31.97 7.09 31.97 7.73L31.97 7.73Q31.97 8.43 32.48 8.84Q32.99 9.25 33.82 9.25ZM44.20 7.49L44.20 7.49Q44.20 7.29 44.25 7.04Q44.30 6.80 44.30 6.50L44.30 6.50Q44.30 6.30 44.13 6.20Q43.96 6.09 43.75 5.96Q43.54 5.84 43.37 5.64Q43.20 5.44 43.20 5.06L43.20 5.06Q43.20 4.79 43.34 4.52Q43.49 4.25 43.77 4.03L43.77 4.03Q44.46 3.52 45.21 3.11Q45.95 2.70 46.69 2.41Q47.44 2.13 48.16 1.98Q48.89 1.83 49.56 1.83L49.56 1.83Q50.68 1.83 51.67 2.24Q52.66 2.66 53.40 3.38Q54.13 4.10 54.56 5.07Q54.98 6.04 54.98 7.14L54.98 7.14Q54.98 8.21 54.53 9.18Q54.08 10.15 53.32 10.88Q52.56 11.60 51.53 12.03Q50.51 12.46 49.37 12.46L49.37 12.46Q48.26 12.46 47.31 12.08Q46.36 11.71 45.67 11.04Q44.98 10.38 44.59 9.47Q44.20 8.57 44.20 7.49ZM49.63 10.35L49.63 10.35Q50.12 10.35 50.65 10.15Q51.18 9.95 51.62 9.57Q52.05 9.19 52.34 8.64Q52.63 8.09 52.63 7.39L52.63 7.39Q52.63 6.69 52.37 6.08Q52.11 5.47 51.66 5.02Q51.21 4.57 50.60 4.31Q49.98 4.05 49.27 4.05L49.27 4.05Q47.96 4.05 47.27 4.73Q46.58 5.40 46.58 6.80L46.58 6.80Q46.58 7.56 46.81 8.21Q47.04 8.86 47.45 9.33Q47.86 9.81 48.42 10.08Q48.97 10.35 49.63 10.35Z" transform="translate(36, 12.311)"></path></svg>